Coordinates
version=1
nRows=41
nColumns=38
inDegrees=no

Units are S.I. units (second, meters, Newtons, ...)
If the header above contains a line with 'inDegrees', this indicates whether rotational values are in degrees (yes) or radians (no).

endheader
time	pelvis_tilt	pelvis_list	pelvis_rotation	pelvis_tx	pelvis_ty	pelvis_tz	hip_flexion_r	hip_adduction_r	hip_rotation_r	knee_angle_r	ankle_angle_r	subtalar_angle_r	mtp_angle_r	hip_flexion_l	hip_adduction_l	hip_rotation_l	knee_angle_l	ankle_angle_l	subtalar_angle_l	mtp_angle_l	lumbar_extension	lumbar_bending	lumbar_rotation	arm_flex_r	arm_add_r	arm_rot_r	elbow_flex_r	pro_sup_r	wrist_flex_r	wrist_dev_r	arm_flex_l	arm_add_l	arm_rot_l	elbow_flex_l	pro_sup_l	wrist_flex_l	wrist_dev_l
0.49	1.76681	1.54232	-0.268677	0.609754	0.050433	0.948875	-0.0847216	0.0393841	-0.070111	0.263994	0.240892	0	0	0.519384	-0.0679025	-0.268589	0.483715	0.163412	0	0	-0.070395	-0.0454276	0.105083	-0.0406644	-0.059536	-0.262764	0.23606	1.38488	0	0	-0.058078	-0.50491	0.728131	0.70256	0.672739	0	0
0.5	1.70495	1.54951	-0.209922	0.609099	0.0635965	0.947097	-0.0936651	0.0279584	-0.0759524	0.271234	0.254563	0	0	0.506661	-0.0572687	-0.304792	0.404305	0.173497	0	0	-0.0675119	-0.053676	0.111362	-0.042118	-0.0586249	-0.260062	0.235162	1.38635	0	0	-0.0560841	-0.504144	0.733966	0.69358	0.676148	0	0
0.51	1.50292	1.55873	-0.0102163	0.608037	0.0766908	0.94526	-0.0982324	0.0131894	-0.0846977	0.284352	0.269247	0	0	0.4897	-0.0362831	-0.318071	0.313685	0.17393	0	0	-0.0636734	-0.063917	0.116197	-0.0433235	-0.0579496	-0.256745	0.234357	1.38708	0	0	-0.0549549	-0.50219	0.736852	0.683731	0.680396	0	0
0.52	0.850593	1.56614	0.640129	0.606761	0.0900349	0.943488	-0.104304	-0.00162435	-0.094411	0.298275	0.283244	0	0	0.47012	-0.0139738	-0.316761	0.224541	0.168787	0	0	-0.0610516	-0.0735486	0.120029	-0.0449428	-0.0578902	-0.251431	0.23353	1.38345	0	0	-0.0560405	-0.499164	0.734602	0.67371	0.689886	0	0
0.53	-0.365015	1.56428	1.85394	0.605502	0.103591	0.941646	-0.109953	-0.0131612	-0.101464	0.311911	0.294131	0	0	0.44986	0.00604201	-0.294238	0.138195	0.158903	0	0	-0.0569553	-0.0802484	0.123782	-0.0479556	-0.0584022	-0.244246	0.23419	1.37617	0	0	-0.0585755	-0.495855	0.73216	0.664014	0.696886	0	0
0.54	-0.666291	1.56011	2.15275	0.604476	0.117399	0.939872	-0.115212	-0.0228623	-0.105253	0.328118	0.302532	0	0	0.427242	0.0223082	-0.254111	0.0569093	0.144102	0	0	-0.052914	-0.0858578	0.127839	-0.0515064	-0.0587928	-0.237899	0.235423	1.37203	0	0	-0.0632741	-0.49375	0.729006	0.657639	0.698073	0	0
0.55	-0.627267	1.55574	2.11161	0.603698	0.131387	0.938019	-0.116347	-0.0298045	-0.106289	0.349592	0.308813	0	0	0.411812	0.0315758	-0.213706	0	0.133144	0	0	-0.0466515	-0.0897235	0.13153	-0.0552056	-0.0584921	-0.235735	0.236037	1.37314	0	0	-0.0698124	-0.492616	0.725062	0.653463	0.69531	0	0
0.56	-0.619372	1.55314	2.10405	0.603054	0.144739	0.936287	-0.116925	-0.0311549	-0.101177	0.374238	0.307525	0	0	0.419553	0.0360258	-0.191814	0	0.138778	0	0	-0.0432495	-0.0936161	0.132966	-0.0575294	-0.0573142	-0.235456	0.235558	1.37382	0	0	-0.07593	-0.492647	0.721017	0.650585	0.692465	0	0
0.57	-0.506217	1.54795	1.99054	0.602251	0.15954	0.934773	-0.113107	-0.0404517	-0.108043	0.402425	0.31147	0	0	0.416299	0.0371383	-0.184168	0	0.146049	0	0	-0.0340372	-0.0965126	0.134016	-0.0616229	-0.0560027	-0.235495	0.235193	1.37556	0	0	-0.0852929	-0.492289	0.714714	0.648439	0.686821	0	0
0.58	-0.573169	1.54399	2.05787	0.601436	0.173998	0.93341	-0.108345	-0.0494377	-0.109124	0.437697	0.310483	0	0	0.424286	0.0406488	-0.178845	0	0.150619	0	0	-0.028154	-0.102867	0.134418	-0.0655526	-0.0542187	-0.236165	0.235758	1.37938	0	0	-0.0953007	-0.493815	0.708982	0.649593	0.676403	0	0
0.59	-0.693819	1.54273	2.17942	0.600636	0.188763	0.932469	-0.107661	-0.0579874	-0.107243	0.471768	0.3047	0	0	0.433615	0.0432278	-0.181951	0.0360097	0.15743	0	0	-0.0259336	-0.109641	0.134351	-0.0693332	-0.0520978	-0.237983	0.23553	1.38072	0	0	-0.106266	-0.496374	0.702547	0.652789	0.670574	0	0
0.6	-0.817686	1.54071	2.30359	0.599909	0.203828	0.93157	-0.10405	-0.0671719	-0.103023	0.511333	0.294754	0	0	0.446864	0.0447442	-0.192872	0.090285	0.166119	0	0	-0.022756	-0.117087	0.134627	-0.0734173	-0.0497512	-0.240576	0.234667	1.38211	0	0	-0.119048	-0.499589	0.695248	0.657433	0.664055	0	0
0.61	-0.912303	1.53885	2.39683	0.599362	0.219256	0.930638	-0.0965646	-0.0754252	-0.095744	0.556921	0.279014	0	0	0.460351	0.0439473	-0.207279	0.150756	0.177061	0	0	-0.0182386	-0.123695	0.136111	-0.0777642	-0.047547	-0.243548	0.232136	1.38376	0	0	-0.134264	-0.503595	0.687015	0.664874	0.656946	0	0
0.62	-0.976568	1.53738	2.45821	0.598914	0.235015	0.929587	-0.083594	-0.0824448	-0.0855417	0.610457	0.256174	0	0	0.471548	0.0418246	-0.22167	0.207481	0.188207	0	0	-0.0121268	-0.129041	0.138309	-0.0819985	-0.0459827	-0.245959	0.228247	1.38613	0	0	-0.151743	-0.508063	0.679202	0.673918	0.64926	0	0
0.63	-1.00518	1.53551	2.48281	0.598428	0.25084	0.928349	-0.0635406	-0.0887624	-0.0723865	0.671536	0.223948	0	0	0.481044	0.0396325	-0.234529	0.255276	0.189243	0	0	-0.00397416	-0.133673	0.140814	-0.0858015	-0.0450585	-0.247418	0.223076	1.38902	0	0	-0.17075	-0.512734	0.672425	0.683727	0.6408	0	0
0.64	-1.00725	1.53135	2.48143	0.597693	0.266431	0.926944	-0.0353355	-0.0960984	-0.0574549	0.739754	0.181792	0	0	0.491281	0.0395141	-0.24382	0.295662	0.17288	0	0	0.00645679	-0.139682	0.142001	-0.0892046	-0.0442408	-0.248328	0.218041	1.39244	0	0	-0.190355	-0.517978	0.667171	0.694432	0.630128	0	0
0.65	-1.09532	1.52502	2.57025	0.596424	0.281634	0.926045	-0.00552157	-0.107191	-0.0445176	0.811126	0.131087	0	0	0.498765	0.0455812	-0.24605	0.33244	0.149534	0	0	0.0127172	-0.150498	0.138304	-0.0914412	-0.0429127	-0.248759	0.215664	1.39594	0	0	-0.207642	-0.523562	0.663246	0.703916	0.621056	0	0
0.66	-1.22873	1.51596	2.70788	0.594893	0.296288	0.925836	0.0246864	-0.121314	-0.0333972	0.88252	0.0731428	0	0	0.505668	0.0560262	-0.245187	0.373936	0.138467	0	0	0.0141128	-0.166074	0.131482	-0.0925202	-0.0406373	-0.249181	0.21604	1.39875	0	0	-0.220788	-0.52992	0.662057	0.711571	0.615163	0	0
0.67	-1.33117	1.50532	2.8145	0.593542	0.310491	0.925994	0.0574217	-0.134654	-0.0205667	0.952979	0.0080498	0	0	0.513694	0.0665682	-0.244476	0.420266	0.139822	0	0	0.0140628	-0.182691	0.125428	-0.0929486	-0.0379128	-0.24935	0.216931	1.40091	0	0	-0.230844	-0.537325	0.664496	0.718972	0.610253	0	0
0.68	-1.4085	1.49642	2.89458	0.592441	0.32454	0.926375	0.0906401	-0.143967	-0.0059495	1.01999	-0.0624944	0	0	0.519165	0.0745676	-0.24398	0.464484	0.143015	0	0	0.0133242	-0.196132	0.121748	-0.0934131	-0.0358178	-0.249184	0.217264	1.40234	0	0	-0.238377	-0.544978	0.671418	0.726207	0.605519	0	0
0.69	-1.47823	1.48992	2.96487	0.591455	0.338473	0.926966	0.123065	-0.149261	0.00988117	1.0817	-0.136168	0	0	0.518724	0.0802496	-0.244113	0.499844	0.142974	0	0	0.011999	-0.205318	0.121118	-0.0934774	-0.0350716	-0.248352	0.215759	1.40233	0	0	-0.243429	-0.551431	0.681774	0.732073	0.601321	0	0
0.7	-1.54366	1.4849	3.02949	0.590437	0.352245	0.927744	0.154079	-0.151923	0.0257557	1.13721	-0.20889	0	0	0.512163	0.0849551	-0.245455	0.52535	0.141666	0	0	0.01053	-0.211392	0.121814	-0.09306	-0.0352663	-0.24716	0.213081	1.40066	0	0	-0.247106	-0.556375	0.693353	0.736657	0.597875	0	0
0.71	-1.59573	1.48099	3.08031	0.589264	0.365787	0.928654	0.183386	-0.152372	0.0411729	1.18635	-0.272363	0	0	0.501431	0.0891809	-0.248635	0.542256	0.142982	0	0	0.00997647	-0.214916	0.122651	-0.0928545	-0.0361635	-0.246026	0.210685	1.39866	0	0	-0.250118	-0.559437	0.704142	0.739782	0.595631	0	0
0.72	-1.63123	1.47787	3.11496	0.587917	0.379066	0.929701	0.212305	-0.151045	0.0555463	1.23198	-0.314758	0	0	0.487969	0.0938617	-0.252542	0.551689	0.147361	0	0	0.0107161	-0.216857	0.122617	-0.0932798	-0.0371625	-0.245511	0.209955	1.39726	0	0	-0.25306	-0.561072	0.71332	0.741486	0.595109	0	0
0.73	-1.65349	1.47588	3.13742	0.586521	0.392138	0.9309	0.242159	-0.147388	0.0692269	1.27694	-0.32239	0	0	0.473213	0.0987107	-0.25523	0.556523	0.152896	0	0	0.0125743	-0.217488	0.121106	-0.0944671	-0.0376431	-0.246431	0.212146	1.39619	0	0	-0.256011	-0.561996	0.720976	0.742534	0.595579	0	0
0.74	-1.66989	1.47498	-3.12794	0.58511	0.405063	0.932356	0.271878	-0.141701	0.0813633	1.31844	-0.303992	0	0	0.456934	0.104281	-0.25443	0.557063	0.157868	0	0	0.0149129	-0.217059	0.118197	-0.096312	-0.0374693	-0.249966	0.216646	1.39594	0	0	-0.258382	-0.562661	0.728921	0.742987	0.596885	0	0
0.75	-1.69024	1.47602	-3.104	0.583593	0.417852	0.934191	0.298379	-0.134357	0.0893856	1.35157	-0.274752	0	0	0.438916	0.11005	-0.24804	0.55474	0.162053	0	0	0.0163754	-0.214557	0.11219	-0.0971296	-0.0373425	-0.254591	0.21954	1.39923	0	0	-0.261399	-0.561429	0.731173	0.741992	0.599286	0	0
0.76	-1.71319	1.47882	-3.07584	0.582077	0.43048	0.93635	0.323839	-0.123997	0.0957516	1.37558	-0.252902	0	0	0.419618	0.115427	-0.236828	0.55027	0.166696	0	0	0.0172834	-0.210291	0.104036	-0.0967621	-0.0372038	-0.261616	0.220283	1.40725	0	0	-0.264333	-0.559545	0.731005	0.741092	0.60111	0	0
0.77	-1.74995	1.48248	-3.03177	0.580494	0.443061	0.938871	0.345341	-0.114123	0.0979049	1.3909	-0.235855	0	0	0.397204	0.120882	-0.222003	0.542513	0.171957	0	0	0.0165048	-0.204995	0.0934278	-0.0954198	-0.0369232	-0.269513	0.219305	1.4176	0	0	-0.267197	-0.55769	0.729912	0.74109	0.600559	0	0
0.78	-1.79965	1.48621	-2.97311	0.578787	0.455587	0.941624	0.363836	-0.10583	0.0969921	1.39962	-0.22102	0	0	0.371822	0.126264	-0.205473	0.531101	0.176929	0	0	0.0143712	-0.199347	0.0807781	-0.0935408	-0.0363119	-0.27891	0.217742	1.42984	0	0	-0.270341	-0.556352	0.72782	0.743182	0.597565	0	0
0.79	-1.85847	1.48999	-2.90437	0.576976	0.468025	0.944473	0.380964	-0.0987586	0.0941914	1.40274	-0.207337	0	0	0.344477	0.130593	-0.189426	0.516474	0.179788	0	0	0.0115519	-0.193124	0.0670147	-0.0911505	-0.0353356	-0.289847	0.214832	1.4435	0	0	-0.272981	-0.55537	0.726653	0.746537	0.592268	0	0
0.8	-1.92684	1.49399	-2.82557	0.575112	0.48033	0.947342	0.397386	-0.092513	0.0896014	1.40072	-0.194814	0	0	0.315749	0.133359	-0.174574	0.498864	0.179894	0	0	0.00811028	-0.186008	0.052854	-0.0880687	-0.0340188	-0.302773	0.210419	1.45764	0	0	-0.275039	-0.554578	0.725294	0.75121	0.58659	0	0
0.81	-2.00674	1.49855	-2.73419	0.573149	0.492475	0.950161	0.412846	-0.086775	0.0826069	1.39355	-0.181366	0	0	0.286764	0.134295	-0.160256	0.479854	0.177636	0	0	0.00411127	-0.177553	0.0382092	-0.084411	-0.0326233	-0.31652	0.204453	1.47144	0	0	-0.275406	-0.553925	0.725262	0.756066	0.582107	0	0
0.82	-2.09298	1.50369	-2.6346	0.571095	0.504469	0.952756	0.427595	-0.0818002	0.0729363	1.38163	-0.165887	0	0	0.259168	0.133697	-0.145577	0.461188	0.174392	0	0	0.000385019	-0.168225	0.0222594	-0.0806193	-0.0310222	-0.330646	0.197953	1.48546	0	0	-0.274395	-0.554044	0.726959	0.761411	0.578476	0	0
0.83	-2.18303	1.50922	-2.52998	0.569052	0.516322	0.955043	0.441986	-0.0776494	0.0612398	1.36555	-0.147692	0	0	0.233615	0.131789	-0.130876	0.443649	0.172329	0	0	-0.00261781	-0.15864	0.0052055	-0.0767698	-0.0291932	-0.344387	0.191462	1.49912	0	0	-0.272954	-0.554879	0.728794	0.767223	0.576007	0	0
0.84	-2.283	1.51385	-2.41616	0.567087	0.528003	0.957046	0.456052	-0.0749604	0.0495527	1.34615	-0.129494	0	0	0.208627	0.129516	-0.117528	0.426405	0.17185	0	0	-0.00580238	-0.149707	-0.0105893	-0.0732336	-0.0274863	-0.356905	0.18594	1.51189	0	0	-0.270337	-0.556368	0.731075	0.773334	0.575016	0	0
0.85	-2.38877	1.51692	-2.2974	0.565243	0.539564	0.958791	0.469342	-0.0736522	0.0387281	1.32355	-0.112184	0	0	0.183155	0.127681	-0.104688	0.408343	0.172949	0	0	-0.00955807	-0.142151	-0.0251945	-0.0700368	-0.0258344	-0.36652	0.181229	1.52527	0	0	-0.267	-0.558718	0.73292	0.780245	0.576756	0	0
0.86	-2.4996	1.51799	-2.17476	0.563571	0.55103	0.960368	0.480303	-0.0735442	0.0287014	1.29702	-0.09395	0	0	0.156242	0.12633	-0.0917703	0.389305	0.175362	0	0	-0.0144416	-0.136018	-0.0381982	-0.0669028	-0.0242637	-0.374266	0.177248	1.53775	0	0	-0.26259	-0.561731	0.734918	0.787064	0.58067	0	0
0.87	-2.60602	1.51642	-2.05938	0.562144	0.562357	0.961799	0.489025	-0.0742688	0.0208243	1.2671	-0.075899	0	0	0.127511	0.125462	-0.08058	0.369726	0.178713	0	0	-0.0211933	-0.131382	-0.0474932	-0.0635736	-0.0228192	-0.381759	0.173546	1.54682	0	0	-0.256154	-0.565132	0.738384	0.793225	0.584937	0	0
0.88	-2.69162	1.51375	-1.96615	0.560926	0.573574	0.962981	0.497161	-0.0757509	0.0134636	1.23482	-0.0597266	0	0	0.0991193	0.124747	-0.0698938	0.350981	0.182168	0	0	-0.0283928	-0.128102	-0.0548684	-0.0604573	-0.0212443	-0.387437	0.170676	1.55378	0	0	-0.248863	-0.569042	0.741804	0.798878	0.589029	0	0
0.89	-2.75929	1.51074	-1.89154	0.559896	0.584745	0.963877	0.504708	-0.0777193	0.00575969	1.20042	-0.045663	0	0	0.0721818	0.123783	-0.0593133	0.334346	0.18602	0	0	-0.0354797	-0.125842	-0.0610402	-0.0575297	-0.0193661	-0.391364	0.168367	1.55841	0	0	-0.24085	-0.573294	0.745207	0.803444	0.592826	0	0
